<svg width="272" height="24" viewBox="0 0 272 24" fill="none" xmlns="http://www.w3.org/2000/svg">
<g clip-path="url(#clip0_1404_33)">
<path fill-rule="evenodd" clip-rule="evenodd" d="M256.834 11.8849C256.834 12.8793 255.572 13.6705 254.267 13.6705H252.877V10.0992H254.477C255.951 10.0992 256.834 10.8453 256.834 11.8849ZM260.796 11.8849C260.815 11.1493 260.678 10.4179 260.393 9.73771C260.108 9.05751 259.682 8.44354 259.143 7.93526C258.603 7.42698 257.961 7.03563 257.259 6.78637C256.556 6.5371 255.809 6.43544 255.064 6.48791H249V22.8846H252.877V17.2471H254.816C256.32 17.2823 257.781 16.7455 258.894 15.7481C260.008 14.7507 260.689 13.3692 260.797 11.89" fill="white"/>
<path fill-rule="evenodd" clip-rule="evenodd" d="M237.964 14.7088C237.949 15.3945 237.796 16.0705 237.514 16.6976C237.232 17.3246 236.826 17.8901 236.32 18.3614C235.815 18.8326 235.219 19.2001 234.568 19.4426C233.917 19.6851 233.224 19.7976 232.528 19.7738C231.823 19.8202 231.116 19.7238 230.451 19.4905C229.785 19.2573 229.175 18.8921 228.658 18.4176C228.141 17.943 227.728 17.3691 227.444 16.7313C227.161 16.0934 227.013 15.4051 227.01 14.7088C227.029 14.0136 227.187 13.3291 227.475 12.6942C227.763 12.0593 228.175 11.4865 228.687 11.0086C229.2 10.5307 229.803 10.157 230.462 9.9089C231.121 9.66081 231.823 9.54316 232.528 9.56269C233.233 9.53055 233.936 9.64007 234.596 9.88458C235.256 10.1291 235.859 10.5035 236.368 10.9849C236.876 11.4664 237.28 12.0448 237.554 12.685C237.829 13.3252 237.968 14.0138 237.964 14.7088ZM242.01 14.7088C242.01 9.68234 238.008 5.86267 232.528 5.86267C231.31 5.81451 230.095 6.00639 228.953 6.42706C227.811 6.84774 226.766 7.48875 225.879 8.31256C224.991 9.13638 224.28 10.1264 223.785 11.2247C223.291 12.323 223.024 13.5075 223 14.7088C223 19.7262 226.96 23.4738 232.528 23.4738C233.738 23.5253 234.946 23.3381 236.082 22.9231C237.217 22.5081 238.257 21.8738 239.14 21.0573C240.023 20.2408 240.732 19.2587 241.225 18.1685C241.718 17.0783 241.985 15.902 242.01 14.7088Z" fill="white"/>
<path d="M203 23V6.5H207V12.5H213V6.5H217V23H213V16H207V23H203Z" fill="#FAF8F4"/>
<path fill-rule="evenodd" clip-rule="evenodd" d="M195.04 18.1592C195.04 15.4948 193.017 13.879 190.111 12.3017C188.936 11.5928 187.876 11.4667 187.876 10.4337C187.876 9.76724 188.636 9.47778 189.182 9.47778C190.438 9.65474 191.621 10.1703 192.599 10.9676L194.539 7.98284C193.06 6.76443 191.237 6.02417 189.317 5.86266C188.631 5.81693 187.942 5.90897 187.292 6.13322C186.642 6.35747 186.045 6.70926 185.538 7.16733C185.03 7.6254 184.622 8.18022 184.337 8.79825C184.053 9.41628 183.899 10.0847 183.885 10.763C183.885 12.9231 185.609 14.4232 187.801 15.5823C190.075 16.7402 191.046 17.4503 191.046 18.3625C191.049 18.5727 191.008 18.7813 190.925 18.9751C190.843 19.1689 190.72 19.3438 190.566 19.4888C190.411 19.6338 190.228 19.7457 190.028 19.8176C189.827 19.8894 189.614 19.9196 189.401 19.9063C187.802 19.9063 186.749 18.8655 185.524 17.5378L183 20.1533C183.71 21.1323 184.636 21.9401 185.708 22.5161C186.78 23.0921 187.97 23.4212 189.19 23.479C189.93 23.5168 190.671 23.4086 191.368 23.1608C192.066 22.913 192.706 22.5304 193.252 22.0356C193.797 21.5408 194.237 20.9437 194.546 20.2791C194.855 19.6146 195.026 18.8961 195.049 18.1656" fill="white"/>
<path fill-rule="evenodd" clip-rule="evenodd" d="M167.208 22.8859V19.3184H160.383V16.0377H163.628L163.586 12.3853H160.383V10.1416H166.779V6.48792H156.496V22.8846L167.208 22.8859Z" fill="white"/>
<path fill-rule="evenodd" clip-rule="evenodd" d="M142.749 11.8849C142.749 12.8793 141.49 13.6705 140.181 13.6705H138.793V10.0992H140.392C141.866 10.0992 142.749 10.8453 142.749 11.8849ZM149.958 22.8859L144.146 16.2037C144.907 15.7543 145.541 15.1232 145.99 14.3686C146.438 13.614 146.687 12.7603 146.712 11.8861C146.728 11.1519 146.588 10.4225 146.303 9.74423C146.017 9.06596 145.591 8.45365 145.053 7.94616C144.514 7.43867 143.874 7.04709 143.174 6.79627C142.474 6.54545 141.728 6.44088 140.985 6.48919H134.915V22.8846H138.795V17.2471H140.014L144.901 22.891L149.958 22.8859Z" fill="white"/>
<path fill-rule="evenodd" clip-rule="evenodd" d="M127.741 10.1429V6.4892H113.961V10.1429H118.891V22.8859H122.766V10.1416L127.741 10.1429Z" fill="white"/>
<path fill-rule="evenodd" clip-rule="evenodd" d="M108.26 18.1592C108.26 15.4948 106.237 13.879 103.331 12.3017C102.156 11.5928 101.097 11.4667 101.097 10.4337C101.097 9.76724 101.856 9.47778 102.402 9.47778C103.658 9.65474 104.841 10.1703 105.819 10.9676L107.759 7.98284C106.28 6.76443 104.458 6.02417 102.538 5.86266C101.851 5.81693 101.162 5.90897 100.512 6.13322C99.8623 6.35747 99.2655 6.70926 98.7577 7.16733C98.2499 7.6254 97.8416 8.18022 97.5575 8.79825C97.2735 9.41628 97.1196 10.0847 97.1051 10.763C97.1051 12.9231 98.8293 14.4232 101.021 15.5823C103.295 16.7402 104.266 17.4503 104.266 18.3625C104.269 18.5727 104.228 18.7813 104.145 18.9751C104.063 19.1689 103.94 19.3438 103.786 19.4888C103.631 19.6338 103.448 19.7457 103.248 19.8176C103.047 19.8894 102.834 19.9196 102.621 19.9063C101.022 19.9063 99.9688 18.8655 98.7445 17.5378L96.2201 20.1533C96.9301 21.1323 97.8558 21.9401 98.9277 22.5161C99.9997 23.0921 101.19 23.4212 102.41 23.479C103.15 23.5168 103.891 23.4086 104.588 23.1608C105.286 22.913 105.926 22.5304 106.472 22.0356C107.018 21.5408 107.458 20.9437 107.766 20.2791C108.075 19.6146 108.246 18.8961 108.269 18.1656" fill="white"/>
<path fill-rule="evenodd" clip-rule="evenodd" d="M84.9455 14.7088C84.9307 15.3945 84.7779 16.0705 84.4958 16.6976C84.2137 17.3246 83.8081 17.8901 83.3024 18.3614C82.7968 18.8326 82.2012 19.2001 81.5502 19.4426C80.8992 19.685 80.2059 19.7976 79.5104 19.7738C78.8055 19.8202 78.0984 19.7238 77.4327 19.4905C76.767 19.2573 76.1568 18.8921 75.6398 18.4176C75.1227 17.943 74.7098 17.3691 74.4263 16.7313C74.1429 16.0934 73.995 15.4051 73.9918 14.7088C74.011 14.0136 74.1691 13.329 74.4569 12.6941C74.7447 12.0593 75.1567 11.4865 75.6692 11.0086C76.1817 10.5307 76.7847 10.157 77.4438 9.90889C78.1029 9.6608 78.8052 9.54316 79.5104 9.56268C80.2148 9.53054 80.9184 9.64006 81.5784 9.88458C82.2384 10.1291 82.8411 10.5035 83.3495 10.9849C83.858 11.4664 84.2618 12.0448 84.5362 12.685C84.8106 13.3252 84.9498 14.0138 84.9455 14.7088ZM88.9919 14.7088C88.9919 9.68233 84.9899 5.86266 79.5104 5.86266C78.2924 5.8145 77.0768 6.00638 75.935 6.42705C74.7931 6.84773 73.7479 7.48874 72.8606 8.31256C71.9732 9.13637 71.2616 10.1264 70.7673 11.2247C70.273 12.323 70.006 13.5075 69.982 14.7088C69.982 19.7262 73.9422 23.4738 79.5104 23.4738C80.7202 23.5253 81.9282 23.3381 83.0636 22.9231C84.1989 22.5081 85.2387 21.8738 86.1219 21.0573C87.0052 20.2408 87.714 19.2586 88.2068 18.1685C88.6997 17.0783 88.9666 15.902 88.9919 14.7088Z" fill="white"/>
<path fill-rule="evenodd" clip-rule="evenodd" d="M58.5952 11.8849C58.5952 12.8793 57.3331 13.6705 56.0278 13.6705H54.6377V10.0992H56.2379C57.7116 10.0992 58.5952 10.8453 58.5952 11.8849ZM62.5567 11.8849C62.5759 11.1493 62.4388 10.4179 62.1541 9.73771C61.8694 9.05751 61.4435 8.44354 60.9037 7.93526C60.3639 7.42698 59.7222 7.03563 59.0198 6.78637C58.3175 6.5371 57.5699 6.43544 56.8253 6.48791H50.761V22.8846H54.6377V17.2471H56.5773C58.0815 17.2823 59.5418 16.7455 60.6553 15.7481C61.7688 14.7507 62.4501 13.3692 62.558 11.89" fill="white"/>
<path fill-rule="evenodd" clip-rule="evenodd" d="M28.1441 17.1647H24.6003L26.3298 13.3837L28.1441 17.1647ZM34.6704 22.0226L27.0855 6.02734H25.6132L18.1118 22.0175L21.653 23.5613L22.9583 20.6499H29.7874L31.1723 23.551L34.6704 22.0226Z" fill="white"/>
<path fill-rule="evenodd" clip-rule="evenodd" d="M12.9094 22.8846V19.3184H5.87141V6.48791H2V22.8846H12.9094Z" fill="white"/>
<path fill-rule="evenodd" clip-rule="evenodd" d="M262.804 0.234143C263.114 0.234143 263.416 0.324686 263.674 0.494324C263.932 0.663961 264.132 0.905073 264.251 1.18717C264.369 1.46927 264.401 1.77968 264.34 2.07915C264.28 2.37862 264.131 2.6537 263.911 2.86961C263.692 3.08552 263.413 3.23255 263.109 3.29212C262.806 3.35169 262.491 3.32112 262.204 3.20427C261.918 3.08742 261.674 2.88955 261.502 2.63567C261.329 2.38179 261.238 2.0833 261.238 1.77796C261.238 1.36852 261.403 0.975841 261.696 0.686318C261.99 0.396795 262.388 0.234143 262.804 0.234143M262.804 -3.42927e-06C262.448 -0.000767134 262.099 0.102633 261.803 0.29711C261.506 0.491586 261.275 0.768397 261.138 1.0925C261.001 1.41661 260.965 1.77345 261.034 2.11784C261.103 2.46224 261.274 2.77872 261.526 3.02722C261.777 3.27572 262.098 3.44507 262.447 3.51384C262.797 3.58261 263.159 3.5477 263.488 3.41353C263.817 3.27937 264.098 3.05198 264.296 2.76015C264.494 2.46831 264.6 2.12515 264.6 1.77411C264.6 1.30435 264.41 0.853884 264.074 0.521358C263.737 0.188832 263.28 0.00135805 262.804 -3.42927e-06" fill="white"/>
<path fill-rule="evenodd" clip-rule="evenodd" d="M262.521 1.04851V1.66475H262.912C262.998 1.65879 263.081 1.62939 263.151 1.57984C263.198 1.54062 263.229 1.48571 263.239 1.42546C263.241 1.38261 263.241 1.33965 263.239 1.29681C263.224 1.24362 263.197 1.19465 263.159 1.154C263.097 1.09851 263.018 1.065 262.934 1.0588C262.91 1.05409 262.885 1.05108 262.86 1.0498L262.521 1.04851ZM262.185 0.819509V2.80075H262.519V1.95422H262.873C262.97 1.97835 263.053 2.03884 263.105 2.12275C263.222 2.33496 263.292 2.56903 263.312 2.80975H263.65C263.617 2.55407 263.555 2.30288 263.464 2.061C263.42 1.97292 263.358 1.89491 263.282 1.832C263.382 1.78096 263.464 1.70108 263.517 1.603C263.577 1.46148 263.557 1.52066 263.571 1.4216C263.585 1.35969 263.585 1.29568 263.571 1.23377C263.553 1.12665 263.502 1.02776 263.424 0.950734C263.336 0.874994 263.233 0.819207 263.121 0.787346C263.052 0.764518 262.98 0.750679 262.907 0.746177C262.736 0.73793 262.565 0.744819 262.395 0.766762C262.327 0.785003 262.257 0.796213 262.186 0.800211L262.185 0.819509Z" fill="white"/>
</g>
<defs>
<clipPath id="clip0_1404_33">
<rect width="272" height="24" fill="white"/>
</clipPath>
</defs>
</svg>
