<svg width="80" height="80" viewBox="0 0 80 80" fill="none" xmlns="http://www.w3.org/2000/svg">
<rect width="80" height="80" fill="#141414"/>
<path fill-rule="evenodd" clip-rule="evenodd" d="M30.6742 14.5115C28.9448 17.94 29.4134 20.8398 31.179 24.1314C35.667 32.4414 42.3892 35.2203 44.8188 44.3463C47.222 53.2986 41.5273 58.9916 36.1204 66.4731C35.1608 67.7951 33.157 66.3701 34.1137 65.0446C39.3264 57.845 45.8442 53.5097 43.5331 44.8894C41.1076 35.7892 33.4764 33.5552 29.001 25.2701C26.951 21.4462 26.7914 17.57 28.8012 13.5848C29.4254 12.3457 31.296 13.2771 30.6742 14.5115ZM39.9485 20.5217C37.8986 21.5204 39.9772 24.0319 40.7967 26.1589C42.9335 30.4304 44.4394 32.6212 47.4048 36.3878C51.2114 40.9457 53.4994 43.3728 56.8543 48.2648C60.221 53.189 59.5009 58.8402 55.5689 63.4219C53.7304 65.5669 50.4857 62.8329 52.3257 60.6845C55.2077 57.3271 57.0959 53.3758 54.6269 49.764C51.3248 44.9457 48.0945 43.3117 44.3497 38.8222C41.1904 34.8149 39.482 32.2616 37.2081 27.7188C36.0391 24.6847 36.6281 21.1536 39.5514 19.726C40.0886 19.4641 40.4849 20.2572 39.9485 20.5217ZM24.4346 27.2916C21.6716 27.7362 25.1172 31.8907 27.0119 33.8551C30.7912 37.7855 33.8154 39.3015 37.7801 43.0513C40.7359 45.8136 41.1693 48.8115 41.1693 52.868C41.1693 54.5464 38.6277 54.5464 38.6277 52.868C38.6277 49.7321 37.7228 47.6301 35.4415 45.4964C31.4101 41.686 27.9358 40.614 24.0948 36.6183C20.8316 33.242 19.2327 25.2736 23.9813 24.5113C25.8499 24.212 26.3038 26.995 24.4346 27.2916Z" fill="#FAF8F4"/>
</svg>
